<svg xmlns="http://www.w3.org/2000/svg"><symbol id="arrow" viewBox="0 0 512 512"><path d="M256 507.102c138.7 0 251.102-112.403 251.102-251.102C507.102 117.329 394.699 4.898 256 4.898 117.33 4.898 4.898 117.329 4.898 256c0 138.7 112.431 251.102 251.102 251.102zM138.264 194.266c11.435-13.029 31.297-14.317 44.294-2.849l73.533 64.552 73.168-65.045c12.936-11.525 32.798-10.358 44.324 2.577 11.557 12.995 10.39 32.857-2.574 44.382l-93.887 83.499c-1.074.979-2.424 1.287-3.557 2.084-1.87 1.255-3.646 2.483-5.671 3.311-1.777.672-3.525 1.011-5.334 1.41-2.146.43-4.199.857-6.374.826-1.84 0-3.619-.368-5.458-.703-2.085-.368-4.137-.738-6.161-1.564-1.84-.738-3.403-1.87-5.117-2.944-1.289-.825-2.758-1.225-3.924-2.266l-94.41-82.915c-13.027-11.466-14.315-31.298-2.852-44.355z" fill-rule="nonzero"/></symbol><symbol id="minus" viewBox="0 0 256 256"><title>minus</title><g fill-rule="evenodd"><path d="M129.74 5.778C63.387 5.778 9.6 59.566 9.6 125.918c0 66.35 53.788 120.14 120.14 120.14 66.35 0 120.139-53.79 120.139-120.14 0-66.352-53.788-120.14-120.14-120.14zm0 228.837c-59.939 0-108.699-48.76-108.699-108.697 0-59.933 48.76-108.698 108.698-108.698 59.938 0 108.698 48.765 108.698 108.698 0 59.938-48.76 108.697-108.698 108.697z"/><path d="M175.507 120.197H83.972a5.72 5.72 0 0 0-5.721 5.726 5.714 5.714 0 0 0 5.72 5.716h91.536a5.714 5.714 0 0 0 5.72-5.716 5.72 5.72 0 0 0-5.72-5.726"/></g></symbol><symbol id="plus" viewBox="0 0 256 256"><title>plus</title><g fill-rule="evenodd"><path d="M126.781 5.778c-66.35 0-120.14 53.788-120.14 120.14 0 66.35 53.79 120.14 120.14 120.14 66.352 0 120.14-53.79 120.14-120.14 0-66.352-53.788-120.14-120.14-120.14zm0 228.837c-59.938 0-108.697-48.76-108.697-108.697 0-59.933 48.76-108.698 108.697-108.698 59.933 0 108.698 48.765 108.698 108.698 0 59.938-48.765 108.697-108.698 108.697z"/><path d="M172.549 120.197h-40.047V80.15a5.714 5.714 0 0 0-5.72-5.715 5.714 5.714 0 0 0-5.721 5.715v40.047H81.014a5.72 5.72 0 0 0-5.72 5.726 5.714 5.714 0 0 0 5.72 5.716h40.047v40.046a5.72 5.72 0 1 0 11.441 0v-40.046h40.047a5.714 5.714 0 0 0 5.72-5.716 5.72 5.72 0 0 0-5.72-5.726"/></g></symbol></svg>