<?xml version="1.0" encoding="utf-8"?>
<!-- Generator: Adobe Illustrator 16.0.0, SVG Export Plug-In . SVG Version: 6.00 Build 0)  -->
<!DOCTYPE svg PUBLIC "-//W3C//DTD SVG 1.1//EN" "http://www.w3.org/Graphics/SVG/1.1/DTD/svg11.dtd">
<svg version="1.1" id="Layer_1" xmlns="http://www.w3.org/2000/svg" xmlns:xlink="http://www.w3.org/1999/xlink" x="0px" y="0px"
	 width="256px" height="256px" viewBox="0 0 256 256" enable-background="new 0 0 256 256" xml:space="preserve">
<path id="arrow" d="M202.3,117.981l-69.397,39.658c-1.215,0.697-2.578,1.046-3.935,1.046c-1.357,0-2.72-0.349-3.933-1.046
	l-69.399-39.658c-3.799-2.173-5.124-7.018-2.951-10.818c2.166-3.799,7.019-5.132,10.819-2.95l65.464,37.42l65.463-37.412
	c3.799-2.181,8.646-0.849,10.811,2.95C207.407,110.97,206.101,115.808,202.3,117.981L202.3,117.981z M247.936,125.968
	c0,65.701-53.264,118.968-118.968,118.968C63.274,244.936,10,191.669,10,125.968C10,60.266,63.274,7,128.968,7
	C194.672,7,247.936,60.266,247.936,125.968z M232.073,125.968c0-56.851-46.255-103.105-103.105-103.105
	S25.862,69.117,25.862,125.968s46.255,103.105,103.105,103.105S232.073,182.818,232.073,125.968z"/>
</svg>
