<?xml version="1.0" encoding="UTF-8" standalone="no"?>
<svg width="256px" height="256px" viewBox="0 0 256 256" version="1.1" xmlns="http://www.w3.org/2000/svg" xmlns:xlink="http://www.w3.org/1999/xlink">
    <!-- Generator: Sketch 3.7.2 (28276) - http://www.bohemiancoding.com/sketch -->
    <title>minus</title>
    <desc>Created with Sketch.</desc>
    <defs></defs>
    <g id="icons" stroke="none" stroke-width="1" fill="none" fill-rule="evenodd">
        <g id="minus" fill="#1A1918">
            <g id="Substract" transform="translate(5.000000, 5.000000)">
                <path d="M124.739163,0.778046512 C58.387814,0.778046512 4.59962791,54.5662326 4.59962791,120.917581 C4.59962791,187.26893 58.387814,241.057116 124.739163,241.057116 C191.090512,241.057116 244.878698,187.26893 244.878698,120.917581 C244.878698,54.5662326 191.090512,0.778046512 124.739163,0.778046512 L124.739163,0.778046512 Z M124.739163,229.615256 C64.8009767,229.615256 16.0414884,180.855767 16.0414884,120.917581 C16.0414884,60.9851163 64.8009767,12.219907 124.739163,12.219907 C184.677349,12.219907 233.436837,60.9851163 233.436837,120.917581 C233.436837,180.855767 184.677349,229.615256 124.739163,229.615256 L124.739163,229.615256 Z" id="Fill-308"></path>
                <path d="M170.506605,115.196651 L78.9717209,115.196651 C75.8080465,115.196651 73.2507907,117.759628 73.2507907,120.923302 C73.2507907,124.081256 75.8080465,126.638512 78.9717209,126.638512 L170.506605,126.638512 C173.670279,126.638512 176.227535,124.081256 176.227535,120.923302 C176.227535,117.759628 173.670279,115.196651 170.506605,115.196651" id="Fill-309"></path>
            </g>
        </g>
    </g>
</svg>