<?xml version="1.0" encoding="UTF-8" standalone="no"?>
<svg width="256px" height="256px" viewBox="0 0 256 256" version="1.1" xmlns="http://www.w3.org/2000/svg" xmlns:xlink="http://www.w3.org/1999/xlink">
    <!-- Generator: Sketch 3.7.2 (28276) - http://www.bohemiancoding.com/sketch -->
    <title>plus</title>
    <desc>Created with Sketch.</desc>
    <defs></defs>
    <g id="icons" stroke="none" stroke-width="1" fill="none" fill-rule="evenodd">
        <g id="plus" fill="#1A1918">
            <g id="Add" transform="translate(5.000000, 5.000000)">
                <path d="M121.781442,0.778046512 C55.430093,0.778046512 1.64190698,54.5662326 1.64190698,120.917581 C1.64190698,187.26893 55.430093,241.057116 121.781442,241.057116 C188.132791,241.057116 241.920977,187.26893 241.920977,120.917581 C241.920977,54.5662326 188.132791,0.778046512 121.781442,0.778046512 L121.781442,0.778046512 Z M121.781442,229.615256 C61.8432558,229.615256 13.0837674,180.855767 13.0837674,120.917581 C13.0837674,60.9851163 61.8432558,12.219907 121.781442,12.219907 C181.713907,12.219907 230.479116,60.9851163 230.479116,120.917581 C230.479116,180.855767 181.713907,229.615256 121.781442,229.615256 L121.781442,229.615256 Z" id="Fill-310"></path>
                <path d="M167.548884,115.196651 L127.502372,115.196651 L127.502372,75.1501395 C127.502372,71.992186 124.945116,69.4349302 121.781442,69.4349302 C118.617767,69.4349302 116.060512,71.992186 116.060512,75.1501395 L116.060512,115.196651 L76.014,115.196651 C72.8503256,115.196651 70.2930698,117.759628 70.2930698,120.923302 C70.2930698,124.081256 72.8503256,126.638512 76.014,126.638512 L116.060512,126.638512 L116.060512,166.685023 C116.060512,169.848698 118.617767,172.411674 121.781442,172.411674 C124.945116,172.411674 127.502372,169.848698 127.502372,166.685023 L127.502372,126.638512 L167.548884,126.638512 C170.712558,126.638512 173.269814,124.081256 173.269814,120.923302 C173.269814,117.759628 170.712558,115.196651 167.548884,115.196651" id="Fill-311"></path>
            </g>
        </g>
    </g>
</svg>